<?xml version="1.0" encoding="utf-8"?>
<!-- Generator: Adobe Illustrator 16.0.4, SVG Export Plug-In . SVG Version: 6.00 Build 0)  -->
<!DOCTYPE svg PUBLIC "-//W3C//DTD SVG 1.0//EN" "http://www.w3.org/TR/2001/REC-SVG-20010904/DTD/svg10.dtd">
<svg version="1.0" id="Layer_2" xmlns="http://www.w3.org/2000/svg" xmlns:xlink="http://www.w3.org/1999/xlink" x="0px" y="0px"
	 width="48px" height="48px" viewBox="0 0 48 48" enable-background="new 0 0 48 48" xml:space="preserve">
<circle fill="#50C5FF" cx="24" cy="24" r="24"/>
<path fill="#D02D42" d="M14.94,13.133c0,0-1.801-0.24-2.762-0.48c-0.96-0.24-5.684,0.36-7.125,5.444
	c-1.441,5.083,0.4,13.089,9.167,13.169s12.93-3.843,13.13-8.565c0.2-4.724-2.242-10.408-7.886-10.729
	C19.463,11.972,19.383,13.213,14.94,13.133z"/>
<path fill="#89B32B" d="M17.942,27.943c0,0-2.122,1.121-5.524,0.801c0,0,2.322,1.921-0.48,4.964c0,0,2.882-0.24,1.881,5.764
	c0,0,1.081-1.4,2.162-1.4c1.081,0,2.802-0.12,3.403,2.081c0,0,0.88-3.282,3.803-2.241c0,0,1.801,0.921,3.162,0.4
	C26.348,38.312,24.747,29.265,17.942,27.943z"/>
<circle fill="#89B32B" cx="34.578" cy="23.923" r="8.811"/>
<circle fill="#BAD246" cx="34.578" cy="23.923" r="7.586"/>
<path fill="#A0CF36" d="M32.679,17.018c-0.606,0-0.875,0.44-0.597,0.979l1.893,3.665c0.278,0.539,0.733,0.539,1.011,0l1.892-3.665
	c0.278-0.539,0.009-0.979-0.597-0.979H32.679z"/>
<path fill="#A0CF36" d="M28.242,20.901c-0.381,0.472-0.208,0.957,0.386,1.08l4.04,0.837c0.594,0.123,0.88-0.23,0.636-0.786
	l-1.658-3.777c-0.244-0.555-0.755-0.624-1.136-0.152L28.242,20.901z"/>
<path fill="#A0CF36" d="M28.468,26.795c0.126,0.593,0.613,0.764,1.082,0.38l3.192-2.613c0.469-0.384,0.375-0.829-0.21-0.989
	l-3.979-1.089c-0.585-0.159-0.96,0.194-0.834,0.788L28.468,26.795z"/>
<path fill="#A0CF36" d="M33.19,30.327c0.54,0.275,0.979,0.005,0.976-0.602l-0.021-4.125c-0.003-0.606-0.409-0.813-0.901-0.459
	l-3.35,2.406c-0.493,0.354-0.454,0.869,0.087,1.145L33.19,30.327z"/>
<path fill="#A0CF36" d="M38.908,28.881c0.554-0.247,0.62-0.759,0.146-1.138l-3.22-2.579c-0.473-0.379-0.889-0.194-0.924,0.411
	l-0.237,4.118c-0.035,0.605,0.39,0.899,0.943,0.652L38.908,28.881z"/>
<path fill="#A0CF36" d="M41.381,23.527c0.157-0.586-0.199-0.959-0.792-0.83l-4.03,0.879c-0.592,0.129-0.71,0.569-0.262,0.977
	l3.051,2.776c0.448,0.408,0.944,0.263,1.101-0.322L41.381,23.527z"/>
<path fill="#A0CF36" d="M38.777,18.235c-0.356-0.49-0.871-0.448-1.143,0.094l-1.854,3.686c-0.272,0.541-0.005,0.909,0.595,0.817
	l4.078-0.624c0.599-0.092,0.798-0.567,0.441-1.059L38.777,18.235z"/>
<path fill="#00A74D" d="M14.66,13.413c0,0,0.04-6.125,6.445-5.524C21.104,7.889,22.025,13.613,14.66,13.413z"/>
<path fill="#80729D" d="M24.627,27.103c0,0-2.762-1.681-4.483,0.48c0,0-2.562-1.24-3.562,1.281c0,0-0.32,1.562,1.961,3.082
	c0,0-0.04,0.521,0.32,1.281c0,0-2.842,0.2-2.202,2.401c0.641,2.202,5.884,4.684,6.525,1.401c0,0,3.603,3.522,5.804,1.201
	c0,0,4.643,3.242,5.364-0.961c0,0,4.363,1.602,4.644-0.601c0.28-2.201-1.001-3.843-4.804-4.083c0,0-0.88-2.281-3.402-2.481
	c0,0,1.521-2.362-1.561-3.963C26.148,24.541,25.107,25.862,24.627,27.103z"/>
<path fill="#EC7D70" d="M12.333,14.372c0,0-3.277,2.031-5.677,7.293C6.655,21.665,5.271,14.372,12.333,14.372z"/>
</svg>
