<?xml version="1.0" encoding="utf-8"?>
<!-- Generator: Adobe Illustrator 16.0.4, SVG Export Plug-In . SVG Version: 6.00 Build 0)  -->
<!DOCTYPE svg PUBLIC "-//W3C//DTD SVG 1.0//EN" "http://www.w3.org/TR/2001/REC-SVG-20010904/DTD/svg10.dtd">
<svg version="1.0" id="Layer_2" xmlns="http://www.w3.org/2000/svg" xmlns:xlink="http://www.w3.org/1999/xlink" x="0px" y="0px"
	 width="48px" height="48px" viewBox="0 0 48 48" enable-background="new 0 0 48 48" xml:space="preserve">
<circle fill="#50C5FF" cx="24" cy="24" r="24"/>
<path fill="#EAAD98" d="M27.356,0.235L16.279,14.817l7.547,5.964L40.432,6.509C36.907,3.197,32.381,0.938,27.356,0.235z"/>
<path fill="#36B49E" d="M23.826,20.993c0,0.211,3.167,7.495,3.167,7.495s8.181,1.794,8.181,5.7v0.475H22.349L9.153,22.101
	l7.02-6.914L23.826,20.993z"/>
<path fill="#FFFFFF" d="M24.545,21.219c-0.247,0.325-0.71,0.389-1.035,0.143l-7.281-5.719c-0.326-0.246-0.39-0.709-0.143-1.035l0,0
	c0.247-0.325,0.71-0.389,1.035-0.143l7.281,5.718C24.728,20.431,24.791,20.894,24.545,21.219L24.545,21.219z"/>
<path fill="#1A7A67" d="M35.172,34.564H22.137c-0.086,0-0.168-0.035-0.229-0.096L9.346,21.801l0.459-0.455l12.467,12.572h12.9
	V34.564z"/>
<path fill="#FFFFFF" d="M22.718,24.621c-0.188,0-0.365-0.116-0.434-0.304c-0.087-0.24,0.037-0.504,0.276-0.591l2.322-0.845
	c0.24-0.087,0.504,0.037,0.592,0.276c0.087,0.24-0.037,0.504-0.276,0.592l-2.322,0.844C22.824,24.612,22.771,24.621,22.718,24.621z"
	/>
<path fill="#FFFFFF" d="M23.668,26.574c-0.188,0-0.366-0.116-0.434-0.304c-0.087-0.24,0.036-0.504,0.276-0.592l2.322-0.844
	c0.24-0.087,0.504,0.036,0.591,0.276c0.087,0.24-0.036,0.504-0.276,0.591l-2.322,0.845C23.773,26.565,23.72,26.574,23.668,26.574z"
	/>
<path fill="#FFFFFF" d="M24.618,28.474c-0.188,0-0.366-0.116-0.434-0.304c-0.087-0.24,0.037-0.504,0.276-0.592l2.322-0.844
	c0.239-0.087,0.504,0.037,0.591,0.276c0.087,0.24-0.037,0.504-0.276,0.592l-2.322,0.844C24.724,28.465,24.67,28.474,24.618,28.474z"
	/>
<path fill="#FFFFFF" d="M35.122,36.213H21.557c-0.253,0-0.496-0.099-0.677-0.275c-0.032-0.031-3.245-3.165-6.422-6.291
	c-1.867-1.836-3.358-3.312-4.43-4.384c-2.224-2.224-2.228-2.246-2.299-2.603c-0.105-0.525,0.235-1.036,0.76-1.141
	c0.4-0.08,0.792,0.099,1.002,0.421c0.659,0.772,7.669,7.658,12.46,12.333h13.17c0.535,0,0.969,0.434,0.969,0.969
	C36.091,35.779,35.657,36.213,35.122,36.213z"/>
</svg>
