<?xml version="1.0" encoding="utf-8"?>
<!DOCTYPE svg PUBLIC "-//W3C//DTD SVG 1.0//EN" "http://www.w3.org/TR/2001/REC-SVG-20010904/DTD/svg10.dtd">
<svg version="1.0" id="Layer_1" xmlns="http://www.w3.org/2000/svg" xmlns:xlink="http://www.w3.org/1999/xlink" x="0px" y="0px"
	 width="48px" height="48px" viewBox="0 0 48 48" enable-background="new 0 0 48 48" xml:space="preserve">

	<path fill="#FFFFFF" d="M28.495,37.28c0-3.239,0.022-6.48-0.017-9.72c-0.006-0.662,0.203-0.82,0.856-0.806
		c1.784,0.04,3.567-0.007,5.353,0.022c0.821,0.016,1.242-0.223,1.34-1.09c0.281-2.418,0.652-4.829,0.988-7.242
		c0.159-1.165-0.027-1.38-1.246-1.383c-2.17-0.004-4.34,0-6.515-0.004c-0.375,0-0.782,0.084-0.767-0.525
		c0.033-1.578-0.038-3.157,0.041-4.732c0.086-1.742,0.83-2.479,2.666-2.589c1.719-0.104,3.447-0.075,5.171-0.08
		C37.07,9.13,37.402,8.849,37.4,8.154c-0.012-2.293-0.012-4.586,0-6.883c0.002-0.642-0.325-0.942-0.965-0.986
		c-2.697-0.188-5.395-0.41-8.104-0.201C22.938,0.5,18.983,4.121,18.274,9.285c-0.311,2.259-0.143,4.523-0.154,6.783
		c-0.002,0.759-0.16,1.046-1.008,1.016c-1.785-0.066-3.568-0.003-5.355-0.027c-0.834-0.014-1.17,0.299-1.158,1.121
		c0.033,2.494,0.029,4.989,0,7.481c-0.012,0.83,0.355,1.128,1.174,1.116c1.787-0.021,3.572,0.029,5.355-0.024
		c0.762-0.021,0.998,0.153,0.992,0.937c-0.035,6.336-0.02,12.674-0.02,19.008c0,1.219,0.08,1.303,1.295,1.304
		c2.615,0.003,5.232,0.003,7.851,0c1.154-0.003,1.249-0.097,1.249-1.255C28.498,43.589,28.495,40.436,28.495,37.28z"/>


</svg>
