<?xml version="1.0" encoding="utf-8"?>
<!DOCTYPE svg PUBLIC "-//W3C//DTD SVG 1.0//EN" "http://www.w3.org/TR/2001/REC-SVG-20010904/DTD/svg10.dtd">
<svg version="1.0" id="Layer_1" xmlns="http://www.w3.org/2000/svg" xmlns:xlink="http://www.w3.org/1999/xlink" x="0px" y="0px"
	 width="48px" height="48px" viewBox="0 0 48 48" enable-background="new 0 0 48 48" xml:space="preserve">

	<path fill="#FFFFFF" d="M23.997,4.326c6.41,0,7.17,0.022,9.703,0.139c2.339,0.107,3.605,0.501,4.45,0.826
		c1.12,0.438,1.927,0.956,2.764,1.798c0.842,0.834,1.36,1.638,1.795,2.755c0.327,0.849,0.721,2.117,0.826,4.462
		c0.116,2.527,0.139,3.29,0.139,9.694c0,6.41-0.022,7.17-0.139,9.7c-0.105,2.339-0.499,3.607-0.826,4.456
		c-0.435,1.117-0.953,1.921-1.795,2.76c-0.837,0.84-1.644,1.358-2.764,1.793c-0.845,0.33-2.111,0.721-4.45,0.826
		c-2.533,0.116-3.293,0.139-9.703,0.139c-6.407,0-7.167-0.022-9.699-0.139c-2.337-0.105-3.605-0.496-4.451-0.826
		c-1.12-0.435-1.926-0.953-2.763-1.793c-0.84-0.839-1.358-1.643-1.793-2.76c-0.33-0.849-0.724-2.117-0.826-4.456
		c-0.116-2.53-0.139-3.29-0.139-9.7c0-6.404,0.022-7.167,0.139-9.694c0.103-2.345,0.496-3.613,0.826-4.462
		c0.435-1.117,0.953-1.921,1.793-2.755c0.837-0.842,1.643-1.36,2.763-1.798c0.846-0.325,2.114-0.719,4.451-0.826
		C16.833,4.349,17.59,4.326,23.997,4.326 M23.997,0c-6.516,0-7.336,0.027-9.891,0.145c-2.559,0.116-4.302,0.523-5.831,1.116
		C6.704,1.873,5.359,2.696,4.029,4.024c-1.338,1.338-2.158,2.68-2.771,4.251c-0.596,1.529-0.997,3.275-1.113,5.831
		C0.022,16.661,0,17.481,0,24s0.022,7.336,0.145,9.896c0.116,2.556,0.518,4.296,1.113,5.825c0.613,1.577,1.434,2.919,2.771,4.249
		c1.33,1.338,2.675,2.156,4.246,2.771c1.529,0.59,3.272,0.997,5.831,1.113C16.661,47.973,17.481,48,23.997,48
		c6.521,0,7.339-0.027,9.896-0.145c2.559-0.116,4.302-0.523,5.828-1.113c1.574-0.615,2.916-1.434,4.249-2.771
		c1.336-1.33,2.153-2.672,2.771-4.249c0.59-1.529,0.997-3.27,1.113-5.825C47.975,31.336,48,30.519,48,24s-0.025-7.339-0.145-9.894
		c-0.116-2.556-0.523-4.302-1.113-5.831c-0.618-1.571-1.436-2.913-2.771-4.251c-1.333-1.328-2.675-2.151-4.249-2.764
		c-1.526-0.593-3.27-1-5.828-1.116C31.336,0.027,30.519,0,23.997,0L23.997,0z"/>
	<path fill="#FFFFFF" d="M23.997,11.673c-6.804,0-12.324,5.521-12.324,12.327c0,6.81,5.521,12.321,12.324,12.321
		c6.81,0,12.33-5.512,12.33-12.321C36.327,17.193,30.807,11.673,23.997,11.673z M23.997,32.001c-4.415,0-7.995-3.583-7.995-8.001
		s3.58-7.998,7.995-7.998c4.421,0,8.001,3.58,8.001,7.998S28.418,32.001,23.997,32.001z"/>
	<circle fill="#FFFFFF" cx="36.811" cy="11.188" r="2.881"/>

</svg>
