<?xml version="1.0" encoding="utf-8"?>
<!-- Generator: Adobe Illustrator 16.0.4, SVG Export Plug-In . SVG Version: 6.00 Build 0)  -->
<!DOCTYPE svg PUBLIC "-//W3C//DTD SVG 1.0//EN" "http://www.w3.org/TR/2001/REC-SVG-20010904/DTD/svg10.dtd">
<svg version="1.0" id="Layer_2" xmlns="http://www.w3.org/2000/svg" xmlns:xlink="http://www.w3.org/1999/xlink" x="0px" y="0px"
	 width="48px" height="48px" viewBox="0 0 48 48" enable-background="new 0 0 48 48" xml:space="preserve">
<circle fill="#50C5FF" cx="24" cy="24" r="24"/>
<path fill="#DE512F" d="M12.723,36.114c0,0.604,0.49,1.095,1.095,1.095h2.145c0.605,0,1.095-0.49,1.095-1.095V9.282
	c0-0.605-0.49-1.095-1.095-1.095h-2.145c-0.605,0-1.095,0.49-1.095,1.095V36.114z"/>
<path fill="#2A3B4F" d="M15.421,37.246h18.951c0.661,0,1.196-0.514,1.196-1.146V9.315c0-0.633-0.535-1.146-1.196-1.146H15.421
	V37.246z"/>
<rect x="18.236" y="26.189" fill="#FFFFFF" width="14.632" height="1.604"/>
<rect x="18.236" y="29.523" fill="#FFFFFF" width="14.632" height="1.605"/>
<rect x="18.236" y="32.859" fill="#FFFFFF" width="8.245" height="1.605"/>
<path fill="#FFFFFF" d="M28.654,13.092c-0.541,0-1.029,0.231-1.372,0.599c-0.397-0.55-1.044-0.909-1.774-0.909
	c-0.699,0-1.322,0.328-1.722,0.839c-0.338-0.327-0.798-0.529-1.305-0.529c-1.038,0-1.878,0.841-1.878,1.878
	c0,1.037,0.841,1.878,1.878,1.878c0.074,0,0.147-0.005,0.22-0.014v4.42h5.615v-4.438c0.109,0.021,0.223,0.032,0.338,0.032
	c1.039,0,1.879-0.841,1.879-1.878C30.534,13.933,29.693,13.092,28.654,13.092z"/>
</svg>
