<?xml version="1.0" encoding="utf-8"?>
<!DOCTYPE svg PUBLIC "-//W3C//DTD SVG 1.0//EN" "http://www.w3.org/TR/2001/REC-SVG-20010904/DTD/svg10.dtd">
<svg version="1.0" id="Layer_1" xmlns="http://www.w3.org/2000/svg" xmlns:xlink="http://www.w3.org/1999/xlink" x="0px" y="0px"
	 width="48px" height="48px" viewBox="-14 -20.003 48 48" enable-background="new -14 -20.003 48 48" xml:space="preserve">
<path fill="#FFFFFF" d="M34-11.087c-1.766,0.794-3.664,1.33-5.655,1.571c2.032-1.235,3.594-3.189,4.329-5.52
	c-1.905,1.144-4.014,1.972-6.257,2.421c-1.795-1.938-4.354-3.151-7.186-3.151c-5.438,0-9.847,4.469-9.847,9.979
	c0,0.781,0.087,1.543,0.256,2.272C1.454-3.93-5.802-7.903-10.658-13.939c-0.847,1.473-1.333,3.188-1.333,5.018
	c0,3.461,1.738,6.515,4.381,8.306c-1.614-0.053-3.132-0.501-4.459-1.248c-0.003,0.039-0.003,0.082-0.003,0.124
	c0,4.835,3.395,8.866,7.9,9.784C-4.999,8.272-5.87,8.395-6.768,8.395c-0.634,0-1.251-0.062-1.852-0.18
	c1.254,3.966,4.89,6.85,9.199,6.93c-3.372,2.675-7.617,4.271-12.23,4.271c-0.793,0-1.579-0.047-2.349-0.143
	c4.358,2.833,9.534,4.485,15.094,4.485c18.116,0,28.018-15.206,28.018-28.391c0-0.432-0.008-0.862-0.028-1.29
	C31.01-7.328,32.68-9.085,34-11.087z"/>
</svg>
