<?xml version="1.0" encoding="utf-8"?>
<!DOCTYPE svg PUBLIC "-//W3C//DTD SVG 1.0//EN" "http://www.w3.org/TR/2001/REC-SVG-20010904/DTD/svg10.dtd">
<svg version="1.0" id="Layer_1" xmlns="http://www.w3.org/2000/svg" xmlns:xlink="http://www.w3.org/1999/xlink" x="0px" y="0px"
	 width="42.083px" height="48px" viewBox="0 0 42.083 48" enable-background="new 0 0 42.083 48" xml:space="preserve">
<g>
	<path fill="#ffffff" d="M37.352,18c-2.864-0.003-5.729,0-8.593,0.001
		c-1.033,0.001-1.715,0.609-1.704,1.517C27.064,20.401,27.748,21,28.748,21c2.88,0,5.76-0.001,8.639,0
		c1.089,0.001,1.689,0.596,1.689,1.677c0.001,6.889,0.001,13.779,0,20.668c-0.001,1.048-0.611,1.652-1.667,1.652
		C26.516,45,15.622,45,4.729,44.997c-1.15,0-1.72-0.579-1.72-1.737c0-6.843,0-13.686,0-20.527c0-1.15,0.582-1.732,1.73-1.732
		c2.879,0,5.759,0.002,8.64,0c0.961-0.001,1.64-0.613,1.652-1.48c0.013-0.886-0.671-1.518-1.658-1.519
		c-2.927-0.003-5.854-0.008-8.781,0.001c-2.608,0.008-4.583,1.966-4.586,4.563c-0.008,6.983-0.007,13.966,0,20.95
		c0.002,2.116,1.472,3.915,3.545,4.385c0.104,0.023,0.202,0.066,0.303,0.1c11.459,0,22.918,0,34.377,0
		c0.251-0.075,0.505-0.146,0.754-0.227c1.85-0.608,3.093-2.317,3.095-4.308c0.006-6.904,0-13.81,0.004-20.715
		C42.084,19.938,40.167,18.003,37.352,18z"/>
	<path fill="#ffffff" d="M14.636,10.008c1.503-1.481,2.991-2.979,4.485-4.47
		c0.114-0.114,0.232-0.223,0.417-0.399c0,0.207,0,0.297,0,0.389c0,6.232,0,12.465,0,18.698c0,2.531-0.005,5.062,0.003,7.592
		c0.003,1.171,1.134,1.904,2.155,1.401c0.633-0.312,0.853-0.854,0.853-1.54c-0.006-8.623-0.004-17.246-0.004-25.869
		c0-0.193,0-0.386,0-0.579c0.051-0.026,0.101-0.053,0.151-0.078c0.1,0.138,0.182,0.294,0.301,0.413
		c1.468,1.473,2.944,2.938,4.411,4.411c0.419,0.419,0.903,0.621,1.487,0.479c0.56-0.136,0.936-0.488,1.097-1.046
		c0.175-0.602-0.008-1.103-0.44-1.534c-2.368-2.363-4.732-4.732-7.109-7.086C22.139,0.488,21.761,0.261,21.418,0
		c-0.25,0-0.501,0-0.751,0c-0.222,0.14-0.478,0.245-0.659,0.425c-2.531,2.511-5.057,5.026-7.57,7.555
		c-0.462,0.464-0.544,1.047-0.271,1.648C12.612,10.606,13.833,10.8,14.636,10.008z"/>
</g>
</svg>
